# xmcd
#
# Track frame offsets:
#	150
#	13127
#	26183
#	40063
#	52368
#	69099
#	79532
#	89739
#	103468
#	118619
#	130393
#	142101
#	161307
#
# Disc length: 2303 seconds
#
# Revision: 0
# Processed by: cddbd v1.5.2PL0 Copyright (c) Steve Scherf et al.
# Submitted via: EasyCDDAExtractor 2010.6.0.0
#
DISCID=ba08fd0d
DTITLE=Tienie Benad'e - Loerelaai
DYEAR=1900
DGENRE=country
TTITLE0=Loerelaai
TTITLE1=Nobody's Fool
TTITLE2=I'm Casting My Lasso
TTITLE3=I Missed Me
TTITLE4=Witfontein
TTITLE5=He'll Have To Go
TTITLE6=Blue Moon Of Kentucky
TTITLE7=Kom Dans Met My
TTITLE8=A Kingdom Called Home
TTITLE9=Before I Met You
TTITLE10=Red River Valley
TTITLE11=Want Dit Is Liefde
TTITLE12=It's No Secret
EXTD=
EXTT0=
EXTT1=
EXTT2=
EXTT3=
EXTT4=
EXTT5=
EXTT6=
EXTT7=
EXTT8=
EXTT9=
EXTT10=
EXTT11=
EXTT12=
PLAYORDER=
